<svg width="18" height="18" viewBox="0 0 18 18" fill="none" xmlns="http://www.w3.org/2000/svg">
<path fill-rule="evenodd" clip-rule="evenodd" d="M0.645874 2.15623C0.645874 1.78804 0.944351 1.48956 1.31254 1.48956H3.91999C4.23774 1.48956 4.51133 1.71382 4.57369 2.02539L5.11879 4.74887H15.6535C15.8522 4.74887 16.0405 4.83749 16.1672 4.99058C16.2938 5.14366 16.3456 5.34526 16.3084 5.54042L15.2654 11.0095L15.2644 11.0145L15.2644 11.0145C15.1743 11.4681 14.9276 11.8756 14.5673 12.1655C14.209 12.454 13.761 12.608 13.3011 12.6008H6.97639C6.51652 12.608 6.06854 12.454 5.71016 12.1655C5.35008 11.8757 5.10338 11.4685 5.0132 11.0151L5.01308 11.0145L3.92432 5.57477C3.91985 5.55652 3.91612 5.53797 3.91319 5.51917L3.37353 2.8229H1.31254C0.944351 2.8229 0.645874 2.52442 0.645874 2.15623ZM6.5285 13.8755C5.80055 13.8755 5.21043 14.4656 5.21043 15.1936C5.21043 15.9215 5.80055 16.5117 6.5285 16.5117C7.25644 16.5117 7.84656 15.9215 7.84656 15.1936C7.84656 14.4656 7.25644 13.8755 6.5285 13.8755ZM13.6985 13.8755C12.9705 13.8755 12.3804 14.4656 12.3804 15.1936C12.3804 15.9215 12.9705 16.5117 13.6985 16.5117C14.4264 16.5117 15.0166 15.9215 15.0166 15.1936C15.0166 14.4656 14.4264 13.8755 13.6985 13.8755Z" fill="#2D3440"/>
</svg>
