<svg width="158" height="20" viewBox="0 0 158 20" fill="none" xmlns="http://www.w3.org/2000/svg">
<path d="M4.42045 14.2273H6.45455V11.2216H9.46023V9.1875H6.45455V6.18182H4.42045V9.1875H1.41477V11.2216H4.42045V14.2273ZM11.8097 16H14.3494L19.179 6.40341V4.36364H11.0142V6.375H16.6335V6.45455L11.8097 16ZM28.9091 16.1591C31.5341 16.1591 33.4205 14.7557 33.4261 12.8693C33.4205 11.4148 32.3011 10.2273 30.9034 9.99432V9.91477C32.1193 9.66477 32.9886 8.61364 32.9943 7.33523C32.9886 5.53409 31.2614 4.20455 28.9091 4.20455C26.5511 4.20455 24.8239 5.53409 24.8295 7.33523C24.8239 8.60795 25.6818 9.66477 26.9205 9.91477V9.99432C25.5 10.2273 24.392 11.4148 24.3977 12.8693C24.392 14.7557 26.2841 16.1591 28.9091 16.1591ZM28.9091 14.3523C27.7386 14.3523 26.9545 13.6591 26.9545 12.6761C26.9545 11.6705 27.7784 10.9432 28.9091 10.9432C30.0341 10.9432 30.8636 11.6705 30.8636 12.6761C30.8636 13.6648 30.0739 14.3523 28.9091 14.3523ZM28.9091 9.15341C27.9261 9.15341 27.2273 8.51136 27.2273 7.59091C27.2273 6.68182 27.9148 6.05682 28.9091 6.05682C29.8977 6.05682 30.5909 6.6875 30.5909 7.59091C30.5909 8.51136 29.8864 9.15341 28.9091 9.15341ZM39.7088 16.2557C42.6349 16.2557 44.402 14.0284 44.4077 10.1932C44.4134 6.38636 42.6236 4.20455 39.7088 4.20455C36.7884 4.20455 35.0156 6.38068 35.0099 10.1932C34.9986 14.017 36.777 16.25 39.7088 16.2557ZM39.7088 14.2159C38.3736 14.2159 37.5099 12.875 37.5156 10.1932C37.5213 7.55114 38.3793 6.22159 39.7088 6.22159C41.0327 6.22159 41.8963 7.55114 41.8963 10.1932C41.902 12.875 41.0384 14.2159 39.7088 14.2159ZM50.7244 16.2557C53.6506 16.2557 55.4176 14.0284 55.4233 10.1932C55.429 6.38636 53.6392 4.20455 50.7244 4.20455C47.804 4.20455 46.0312 6.38068 46.0256 10.1932C46.0142 14.017 47.7926 16.25 50.7244 16.2557ZM50.7244 14.2159C49.3892 14.2159 48.5256 12.875 48.5312 10.1932C48.5369 7.55114 49.3949 6.22159 50.7244 6.22159C52.0483 6.22159 52.9119 7.55114 52.9119 10.1932C52.9176 12.875 52.054 14.2159 50.7244 14.2159ZM65.1307 16.1591C67.7216 16.1591 69.483 14.4716 69.4773 12.1193C69.483 9.89205 67.9261 8.28977 65.8295 8.28977C64.8068 8.28977 63.9261 8.71591 63.517 9.28977H63.4489L63.75 6.375H68.8352V4.36364H61.7216L61.1705 10.5L63.358 10.892C63.7159 10.4091 64.4091 10.108 65.0966 10.108C66.267 10.1136 67.108 10.9602 67.108 12.1818C67.108 13.392 66.2841 14.2273 65.1307 14.2273C64.1534 14.2273 63.3636 13.6136 63.3068 12.7102H60.9205C60.9659 14.7216 62.7216 16.1591 65.1307 16.1591ZM75.4432 16.1591C78.0341 16.1591 79.7955 14.4716 79.7898 12.1193C79.7955 9.89205 78.2386 8.28977 76.142 8.28977C75.1193 8.28977 74.2386 8.71591 73.8295 9.28977H73.7614L74.0625 6.375H79.1477V4.36364H72.0341L71.483 10.5L73.6705 10.892C74.0284 10.4091 74.7216 10.108 75.4091 10.108C76.5795 10.1136 77.4205 10.9602 77.4205 12.1818C77.4205 13.392 76.5966 14.2273 75.4432 14.2273C74.4659 14.2273 73.6761 13.6136 73.6193 12.7102H71.233C71.2784 14.7216 73.0341 16.1591 75.4432 16.1591ZM85.7557 16.1591C88.3466 16.1591 90.108 14.4716 90.1023 12.1193C90.108 9.89205 88.5511 8.28977 86.4545 8.28977C85.4318 8.28977 84.5511 8.71591 84.142 9.28977H84.0739L84.375 6.375H89.4602V4.36364H82.3466L81.7955 10.5L83.983 10.892C84.3409 10.4091 85.0341 10.108 85.7216 10.108C86.892 10.1136 87.733 10.9602 87.733 12.1818C87.733 13.392 86.9091 14.2273 85.7557 14.2273C84.7784 14.2273 83.9886 13.6136 83.9318 12.7102H81.5455C81.5909 14.7216 83.3466 16.1591 85.7557 16.1591ZM97.2784 9.22159H91.9716V11.142H97.2784V9.22159ZM103.659 16.1591C106.284 16.1591 108.17 14.7557 108.176 12.8693C108.17 11.4148 107.051 10.2273 105.653 9.99432V9.91477C106.869 9.66477 107.739 8.61364 107.744 7.33523C107.739 5.53409 106.011 4.20455 103.659 4.20455C101.301 4.20455 99.5739 5.53409 99.5795 7.33523C99.5739 8.60795 100.432 9.66477 101.67 9.91477V9.99432C100.25 10.2273 99.142 11.4148 99.1477 12.8693C99.142 14.7557 101.034 16.1591 103.659 16.1591ZM103.659 14.3523C102.489 14.3523 101.705 13.6591 101.705 12.6761C101.705 11.6705 102.528 10.9432 103.659 10.9432C104.784 10.9432 105.614 11.6705 105.614 12.6761C105.614 13.6648 104.824 14.3523 103.659 14.3523ZM103.659 9.15341C102.676 9.15341 101.977 8.51136 101.977 7.59091C101.977 6.68182 102.665 6.05682 103.659 6.05682C104.648 6.05682 105.341 6.6875 105.341 7.59091C105.341 8.51136 104.636 9.15341 103.659 9.15341ZM114.362 16.1591C116.953 16.1705 118.72 14.4716 118.714 12.1023C118.72 9.92045 117.197 8.34659 115.135 8.34659C113.857 8.34659 112.726 8.96023 112.203 9.98864H112.124C112.135 7.72159 112.93 6.3125 114.447 6.3125C115.339 6.3125 115.982 6.80114 116.169 7.61364H118.595C118.362 5.69886 116.771 4.20455 114.447 4.20455C111.572 4.20455 109.726 6.53409 109.714 10.4432C109.709 14.7045 111.97 16.1477 114.362 16.1591ZM114.351 14.2273C113.214 14.2273 112.374 13.3125 112.374 12.1761C112.379 11.0455 113.237 10.125 114.368 10.125C115.504 10.125 116.334 11.017 116.328 12.1705C116.334 13.3352 115.487 14.2273 114.351 14.2273ZM125.919 9.22159H120.612V11.142H125.919V9.22159ZM127.631 16H135.926V13.9886H131.04V13.9091L132.739 12.2443C135.131 10.0625 135.773 8.97159 135.773 7.64773C135.773 5.63068 134.125 4.20455 131.631 4.20455C129.188 4.20455 127.511 5.66477 127.517 7.94886H129.852C129.847 6.83523 130.551 6.15341 131.614 6.15341C132.636 6.15341 133.398 6.78977 133.398 7.8125C133.398 8.73864 132.83 9.375 131.773 10.392L127.631 14.2273V16ZM142.05 16.1591C144.675 16.1591 146.561 14.7557 146.567 12.8693C146.561 11.4148 145.442 10.2273 144.044 9.99432V9.91477C145.26 9.66477 146.129 8.61364 146.135 7.33523C146.129 5.53409 144.402 4.20455 142.05 4.20455C139.692 4.20455 137.964 5.53409 137.97 7.33523C137.964 8.60795 138.822 9.66477 140.061 9.91477V9.99432C138.641 10.2273 137.533 11.4148 137.538 12.8693C137.533 14.7557 139.425 16.1591 142.05 16.1591ZM142.05 14.3523C140.879 14.3523 140.095 13.6591 140.095 12.6761C140.095 11.6705 140.919 10.9432 142.05 10.9432C143.175 10.9432 144.004 11.6705 144.004 12.6761C144.004 13.6648 143.214 14.3523 142.05 14.3523ZM142.05 9.15341C141.067 9.15341 140.368 8.51136 140.368 7.59091C140.368 6.68182 141.055 6.05682 142.05 6.05682C143.038 6.05682 143.732 6.6875 143.732 7.59091C143.732 8.51136 143.027 9.15341 142.05 9.15341Z" fill="#2D3440"/>
</svg>
